<?xml version="1.0" encoding="UTF-8" standalone="no"?>
<svg
   viewBox="0 0 16 16"
   width="16"
   height="16"
   version="1.1"
   id="svg27"
   sodipodi:docname="sun.svg"
   inkscape:version="1.2.2 (732a01da63, 2022-12-09, custom)"
   xmlns:inkscape="http://www.inkscape.org/namespaces/inkscape"
   xmlns:sodipodi="http://sodipodi.sourceforge.net/DTD/sodipodi-0.dtd"
   xmlns="http://www.w3.org/2000/svg"
   xmlns:svg="http://www.w3.org/2000/svg">
  <defs
     id="defs31" />
  <sodipodi:namedview
     id="namedview29"
     pagecolor="#ffffff"
     bordercolor="#000000"
     borderopacity="0.25"
     inkscape:showpageshadow="2"
     inkscape:pageopacity="0.0"
     inkscape:pagecheckerboard="0"
     inkscape:deskcolor="#d1d1d1"
     showgrid="false"
     inkscape:zoom="30.5"
     inkscape:cx="8"
     inkscape:cy="8"
     inkscape:window-width="1366"
     inkscape:window-height="691"
     inkscape:window-x="0"
     inkscape:window-y="0"
     inkscape:window-maximized="1"
     inkscape:current-layer="svg27" />
  <path
     d="M8 12a4 4 0 1 1 0-8 4 4 0 0 1 0 8Zm0-1.5a2.5 2.5 0 1 0 0-5 2.5 2.5 0 0 0 0 5Zm5.657-8.157a.75.75 0 0 1 0 1.061l-1.061 1.06a.749.749 0 0 1-1.275-.326.749.749 0 0 1 .215-.734l1.06-1.06a.75.75 0 0 1 1.06 0Zm-9.193 9.193a.75.75 0 0 1 0 1.06l-1.06 1.061a.75.75 0 1 1-1.061-1.06l1.06-1.061a.75.75 0 0 1 1.061 0ZM8 0a.75.75 0 0 1 .75.75v1.5a.75.75 0 0 1-1.5 0V.75A.75.75 0 0 1 8 0ZM3 8a.75.75 0 0 1-.75.75H.75a.75.75 0 0 1 0-1.5h1.5A.75.75 0 0 1 3 8Zm13 0a.75.75 0 0 1-.75.75h-1.5a.75.75 0 0 1 0-1.5h1.5A.75.75 0 0 1 16 8Zm-8 5a.75.75 0 0 1 .75.75v1.5a.75.75 0 0 1-1.5 0v-1.5A.75.75 0 0 1 8 13Zm3.536-1.464a.75.75 0 0 1 1.06 0l1.061 1.06a.75.75 0 0 1-1.06 1.061l-1.061-1.06a.75.75 0 0 1 0-1.061ZM2.343 2.343a.75.75 0 0 1 1.061 0l1.06 1.061a.751.751 0 0 1-.018 1.042.751.751 0 0 1-1.042.018l-1.06-1.06a.75.75 0 0 1 0-1.06Z"
     id="path25"
     style="fill:#f9f9f9" />
</svg>
